<svg xmlns="http://www.w3.org/2000/svg" width="16" height="20.001" viewBox="0 0 16 20.001">
  <path id="delete-icon" d="M442.031,477.64a1.857,1.857,0,0,1-1.844-1.786l-.532-11.339h-.337a.62.62,0,0,1-.615-.625h0V461.7a1.553,1.553,0,0,1,1.539-1.562h3.384v-.625a1.863,1.863,0,0,1,1.846-1.875h2.461a1.863,1.863,0,0,1,1.846,1.875v.625h3.385A1.551,1.551,0,0,1,454.7,461.7v2.188a.62.62,0,0,1-.615.625h-.336l-.532,11.339a1.857,1.857,0,0,1-1.844,1.786Zm-.614-1.845a.619.619,0,0,0,.614.6h9.344a.619.619,0,0,0,.614-.6l.53-11.28H440.888ZM439.935,461.7v1.563h13.537V461.7a.31.31,0,0,0-.307-.312H440.242a.31.31,0,0,0-.307.31Zm4.923-2.187v.625h3.691v-.625a.62.62,0,0,0-.615-.625h-2.461a.621.621,0,0,0-.614.624Zm4.307,15v-8.125a.615.615,0,1,1,1.231,0v8.125a.615.615,0,1,1-1.231,0Zm-3.077,0v-8.125a.615.615,0,1,1,1.231,0v8.125a.615.615,0,1,1-1.231,0Zm-3.077,0v-8.125a.615.615,0,1,1,1.231,0v8.125a.615.615,0,1,1-1.231,0Z" transform="translate(-438.703 -457.641)" fill="#788da5"/>
</svg>
