<svg xmlns="http://www.w3.org/2000/svg" width="20" height="20" viewBox="0 0 20 20">
  <path id="edit-icon" d="M477.64,460.879l-1.477-1.474a2.84,2.84,0,0,0-3.993,0l-11.2,11.208-.2.268-.076.3-2.191,6.554a.636.636,0,0,0,.394.812.464.464,0,0,0,.21.034.413.413,0,0,0,.2-.027l6.888-2.293.011.005.1-.066.181-.008-.05-.1,11.209-11.22A2.838,2.838,0,0,0,477.64,460.879Zm-17.527,16.044,1.553-4.636,3.09,3.087Zm5.838-2.168-3.657-3.654,9.361-9.36,3.657,3.655Zm10.916-10.932,0,.014-.64.648-3.661-3.658.513-.514a1.547,1.547,0,0,1,2.177,0l1.49,1.48A1.542,1.542,0,0,1,476.866,463.823Z" transform="translate(-458.462 -458.585)" fill="#788da5"/>
</svg>
