<svg xmlns="http://www.w3.org/2000/svg" width="18" height="18" viewBox="0 0 18 18">
  <path id="linkedin-icon" d="M20,6H16.016V-.75a1.859,1.859,0,0,0-.727-1.359,2.329,2.329,0,0,0-1.523-.562,1.547,1.547,0,0,0-1.289.563A2.355,2.355,0,0,0,11.984-.75V6H8V-6h3.984v2.016A3.7,3.7,0,0,1,13.578-5.3,4.671,4.671,0,0,1,15.5-5.766,4.442,4.442,0,0,1,18.688-4.43,4.513,4.513,0,0,1,20-1.266ZM5.984,6H2V-6H5.984ZM4.016-12a1.869,1.869,0,0,1,1.406.586,1.987,1.987,0,0,1,.563,1.43,1.908,1.908,0,0,1-.562,1.406,1.908,1.908,0,0,1-1.406.563,1.987,1.987,0,0,1-1.43-.562A1.869,1.869,0,0,1,2-9.984a1.945,1.945,0,0,1,.586-1.43A1.945,1.945,0,0,1,4.016-12Z" transform="translate(-2 12)" fill="#fff"/>
</svg>
