<svg xmlns="http://www.w3.org/2000/svg" width="20" height="16" viewBox="0 0 20 16">
  <path id="twitter-icon" d="M22.111,7.171a9.182,9.182,0,0,1-2.332.661,4.094,4.094,0,0,0,1.794-2.248,8.159,8.159,0,0,1-2.6.97,4.144,4.144,0,0,0-3.049-1.278,4.1,4.1,0,0,0-2.87,1.19A4.008,4.008,0,0,0,11.842,9.33a3.153,3.153,0,0,0,.135.926A12.291,12.291,0,0,1,7.2,8.978,11.426,11.426,0,0,1,3.5,6.025a4.074,4.074,0,0,0-.045,3.967,3.975,3.975,0,0,0,1.3,1.41,4.153,4.153,0,0,1-1.839-.485v.044a3.848,3.848,0,0,0,.919,2.579,4.147,4.147,0,0,0,2.354,1.388,4.148,4.148,0,0,1-1.076.132,3.186,3.186,0,0,1-.762-.088,4,4,0,0,0,1.435,2.006,4.1,4.1,0,0,0,2.377.815,7.468,7.468,0,0,1-2.332,1.278,8.463,8.463,0,0,1-2.735.441q-.493,0-.987-.044a12.322,12.322,0,0,0,2.937,1.322,11.4,11.4,0,0,0,3.341.485q5.7-.22,8.677-3.747a11.9,11.9,0,0,0,3.027-7.713l-.045-.529A8.742,8.742,0,0,0,22.111,7.171Z" transform="translate(-2.111 -5.275)" fill="#fff"/>
</svg>
