<svg xmlns="http://www.w3.org/2000/svg" width="21.048" height="14" viewBox="0 0 21.048 14">
  <path id="view-icon" d="M10185.2,11882.537a.692.692,0,0,1,0-.794c.179-.248,4.437-6.1,9.873-6.1s9.693,5.854,9.873,6.1a.682.682,0,0,1,0,.794c-.18.25-4.434,6.1-9.873,6.1S10185.376,11882.787,10185.2,11882.537Zm1.372-.4c1.026,1.271,4.5,5.156,8.5,5.156s7.477-3.885,8.5-5.153c-1.029-1.273-4.5-5.158-8.5-5.158S10187.6,11880.869,10186.569,11882.14Zm4.545,0a3.957,3.957,0,1,1,3.956,4.037A4,4,0,0,1,10191.114,11882.14Zm1.318,0a2.638,2.638,0,1,0,2.638-2.687A2.669,2.669,0,0,0,10192.433,11882.14Z" transform="translate(-10184.548 -11875.142)" fill="#788da5" stroke="rgba(0,0,0,0)" stroke-miterlimit="10" stroke-width="1"/>
</svg>
